<?xml version="1.0" encoding="utf-8" ?>
<svg baseProfile="full" height="514" version="1.1" width="736" xmlns="http://www.w3.org/2000/svg" xmlns:ev="http://www.w3.org/2001/xml-events" xmlns:xlink="http://www.w3.org/1999/xlink"><defs /><rect fill="white" height="100%" width="100%" x="0" y="0" /><rect fill="#f8fafc" height="120" rx="6" ry="6" stroke="none" width="696" x="20" y="20" /><rect fill="#334155" height="28" rx="6" ry="6" width="696" x="20" y="20" /><rect fill="#334155" height="6" width="696" x="20" y="42" /><text fill="white" font-family="ui-monospace, monospace" font-size="13px" font-weight="bold" x="32" y="40">Power Supply</text><rect fill="#dbeafe" height="22" stroke="#93c5fd" stroke-width="1" width="696" x="20" y="48" /><text fill="#1e3a5f" font-family="ui-monospace, monospace" font-size="10px" text-anchor="middle" x="38.0" y="63">#</text><text fill="#1e3a5f" font-family="ui-monospace, monospace" font-size="10px" font-weight="bold" x="62" y="63">J1</text><rect fill="#ffffff" height="22" stroke="#e2e8f0" stroke-width="0.5" width="696" x="20" y="70" /><line stroke="#cbd5e1" stroke-width="0.5" x1="56" x2="56" y1="70" y2="92" /><line stroke="#cbd5e1" stroke-width="0.5" x1="216" x2="216" y1="70" y2="92" /><text fill="#64748b" font-family="ui-monospace, monospace" font-size="10px" text-anchor="middle" x="38.0" y="85.0">1</text><text fill="#1e293b" font-family="ui-monospace, monospace" font-size="10px" x="62" y="85.0">12V Out</text><line stroke="#dc2626" stroke-width="1.5" x1="222" x2="651.0" y1="81.0" y2="81.0" /><text fill="#94a3b8" font-family="ui-monospace, monospace" font-size="7px" x="226" y="78.0">22R</text><rect fill="#fef9c3" height="10" rx="2" ry="2" stroke="#a16207" stroke-width="1.5" width="18" x="654.0" y="76.0" /><line stroke="#a16207" stroke-width="1.5" x1="658.0" x2="668.0" y1="81.0" y2="81.0" /><text fill="#1e293b" font-family="ui-monospace, monospace" font-size="9px" x="675.0" y="85.0">F1 5A</text><rect fill="#ffffff" height="22" stroke="#e2e8f0" stroke-width="0.5" width="696" x="20" y="106" /><line stroke="#cbd5e1" stroke-width="0.5" x1="56" x2="56" y1="106" y2="128" /><line stroke="#cbd5e1" stroke-width="0.5" x1="216" x2="216" y1="106" y2="128" /><text fill="#64748b" font-family="ui-monospace, monospace" font-size="10px" text-anchor="middle" x="38.0" y="121.0">2</text><text fill="#1e293b" font-family="ui-monospace, monospace" font-size="10px" x="62" y="121.0">Ground</text><line stroke="#111111" stroke-width="1.5" x1="222" x2="651.0" y1="117.0" y2="117.0" /><text fill="#94a3b8" font-family="ui-monospace, monospace" font-size="7px" x="226" y="114.0">22B</text><polygon fill="#334155" points="663.0,127.0 656.0,115.0 670.0,115.0" stroke="#334155" stroke-width="1" /><text fill="#1e293b" font-family="ui-monospace, monospace" font-size="9px" x="675.0" y="121.0">GND</text><rect fill="none" height="120" rx="6" ry="6" stroke="#334155" stroke-width="2" width="696" x="20" y="20" /><rect fill="#f8fafc" height="156" rx="6" ry="6" stroke="none" width="696" x="20" y="154" /><rect fill="#334155" height="28" rx="6" ry="6" width="696" x="20" y="154" /><rect fill="#334155" height="6" width="696" x="20" y="176" /><text fill="white" font-family="ui-monospace, monospace" font-size="13px" font-weight="bold" x="32" y="174">Load Device</text><rect fill="#dbeafe" height="22" stroke="#93c5fd" stroke-width="1" width="696" x="20" y="182" /><text fill="#1e3a5f" font-family="ui-monospace, monospace" font-size="10px" text-anchor="middle" x="38.0" y="197">#</text><text fill="#1e3a5f" font-family="ui-monospace, monospace" font-size="10px" font-weight="bold" x="62" y="197">J1</text><rect fill="#ffffff" height="22" stroke="#e2e8f0" stroke-width="0.5" width="696" x="20" y="204" /><line stroke="#cbd5e1" stroke-width="0.5" x1="56" x2="56" y1="204" y2="226" /><line stroke="#cbd5e1" stroke-width="0.5" x1="216" x2="216" y1="204" y2="226" /><text fill="#64748b" font-family="ui-monospace, monospace" font-size="10px" text-anchor="middle" x="38.0" y="219.0">1</text><text fill="#1e293b" font-family="ui-monospace, monospace" font-size="10px" x="62" y="219.0">Power In</text><line stroke="#dc2626" stroke-width="1.5" x1="222" x2="651.0" y1="215.0" y2="215.0" /><text fill="#94a3b8" font-family="ui-monospace, monospace" font-size="7px" x="226" y="212.0">22R</text><rect fill="#fef9c3" height="10" rx="2" ry="2" stroke="#a16207" stroke-width="1.5" width="18" x="654.0" y="210.0" /><line stroke="#a16207" stroke-width="1.5" x1="658.0" x2="668.0" y1="215.0" y2="215.0" /><text fill="#1e293b" font-family="ui-monospace, monospace" font-size="9px" x="675.0" y="219.0">F1 5A</text><rect fill="#ffffff" height="22" stroke="#e2e8f0" stroke-width="0.5" width="696" x="20" y="240" /><line stroke="#cbd5e1" stroke-width="0.5" x1="56" x2="56" y1="240" y2="262" /><line stroke="#cbd5e1" stroke-width="0.5" x1="216" x2="216" y1="240" y2="262" /><text fill="#64748b" font-family="ui-monospace, monospace" font-size="10px" text-anchor="middle" x="38.0" y="255.0">2</text><text fill="#1e293b" font-family="ui-monospace, monospace" font-size="10px" x="62" y="255.0">Ground</text><line stroke="#111111" stroke-width="1.5" x1="222" x2="651.0" y1="251.0" y2="251.0" /><text fill="#94a3b8" font-family="ui-monospace, monospace" font-size="7px" x="226" y="248.0">22B</text><polygon fill="#334155" points="663.0,261.0 656.0,249.0 670.0,249.0" stroke="#334155" stroke-width="1" /><text fill="#1e293b" font-family="ui-monospace, monospace" font-size="9px" x="675.0" y="255.0">GND</text><rect fill="#ffffff" height="22" stroke="#e2e8f0" stroke-width="0.5" width="696" x="20" y="276" /><line stroke="#cbd5e1" stroke-width="0.5" x1="56" x2="56" y1="276" y2="298" /><line stroke="#cbd5e1" stroke-width="0.5" x1="216" x2="216" y1="276" y2="298" /><text fill="#64748b" font-family="ui-monospace, monospace" font-size="10px" text-anchor="middle" x="38.0" y="291.0">3</text><text fill="#1e293b" font-family="ui-monospace, monospace" font-size="10px" x="62" y="291.0">Signal Out</text><line stroke="#9ca3af" stroke-width="1.5" x1="222" x2="552" y1="287.0" y2="287.0" /><text fill="#94a3b8" font-family="ui-monospace, monospace" font-size="7px" x="226" y="284.0">22</text><rect fill="none" height="156" rx="6" ry="6" stroke="#334155" stroke-width="2" width="696" x="20" y="154" /><rect fill="#f8fafc" height="156" rx="6" ry="6" stroke="none" width="696" x="20" y="324" /><rect fill="#334155" height="28" rx="6" ry="6" width="696" x="20" y="324" /><rect fill="#334155" height="6" width="696" x="20" y="346" /><text fill="white" font-family="ui-monospace, monospace" font-size="13px" font-weight="bold" x="32" y="344">Display</text><rect fill="#dbeafe" height="22" stroke="#93c5fd" stroke-width="1" width="696" x="20" y="352" /><text fill="#1e3a5f" font-family="ui-monospace, monospace" font-size="10px" text-anchor="middle" x="38.0" y="367">#</text><text fill="#1e3a5f" font-family="ui-monospace, monospace" font-size="10px" font-weight="bold" x="62" y="367">J1</text><rect fill="#ffffff" height="22" stroke="#e2e8f0" stroke-width="0.5" width="696" x="20" y="374" /><line stroke="#cbd5e1" stroke-width="0.5" x1="56" x2="56" y1="374" y2="396" /><line stroke="#cbd5e1" stroke-width="0.5" x1="216" x2="216" y1="374" y2="396" /><text fill="#64748b" font-family="ui-monospace, monospace" font-size="10px" text-anchor="middle" x="38.0" y="389.0">1</text><text fill="#1e293b" font-family="ui-monospace, monospace" font-size="10px" x="62" y="389.0">Power</text><line stroke="#dc2626" stroke-width="1.5" x1="222" x2="651.0" y1="385.0" y2="385.0" /><text fill="#94a3b8" font-family="ui-monospace, monospace" font-size="7px" x="226" y="382.0">22R</text><rect fill="#fef9c3" height="10" rx="2" ry="2" stroke="#a16207" stroke-width="1.5" width="18" x="654.0" y="380.0" /><line stroke="#a16207" stroke-width="1.5" x1="658.0" x2="668.0" y1="385.0" y2="385.0" /><text fill="#1e293b" font-family="ui-monospace, monospace" font-size="9px" x="675.0" y="389.0">F1 5A</text><rect fill="#ffffff" height="22" stroke="#e2e8f0" stroke-width="0.5" width="696" x="20" y="410" /><line stroke="#cbd5e1" stroke-width="0.5" x1="56" x2="56" y1="410" y2="432" /><line stroke="#cbd5e1" stroke-width="0.5" x1="216" x2="216" y1="410" y2="432" /><text fill="#64748b" font-family="ui-monospace, monospace" font-size="10px" text-anchor="middle" x="38.0" y="425.0">2</text><text fill="#1e293b" font-family="ui-monospace, monospace" font-size="10px" x="62" y="425.0">Ground</text><line stroke="#111111" stroke-width="1.5" x1="222" x2="651.0" y1="421.0" y2="421.0" /><text fill="#94a3b8" font-family="ui-monospace, monospace" font-size="7px" x="226" y="418.0">22B</text><polygon fill="#334155" points="663.0,431.0 656.0,419.0 670.0,419.0" stroke="#334155" stroke-width="1" /><text fill="#1e293b" font-family="ui-monospace, monospace" font-size="9px" x="675.0" y="425.0">GND</text><rect fill="#ffffff" height="22" stroke="#e2e8f0" stroke-width="0.5" width="696" x="20" y="446" /><line stroke="#cbd5e1" stroke-width="0.5" x1="56" x2="56" y1="446" y2="468" /><line stroke="#cbd5e1" stroke-width="0.5" x1="216" x2="216" y1="446" y2="468" /><text fill="#64748b" font-family="ui-monospace, monospace" font-size="10px" text-anchor="middle" x="38.0" y="461.0">3</text><text fill="#1e293b" font-family="ui-monospace, monospace" font-size="10px" x="62" y="461.0">Data In</text><line stroke="#9ca3af" stroke-width="1.5" x1="222" x2="552" y1="457.0" y2="457.0" /><text fill="#94a3b8" font-family="ui-monospace, monospace" font-size="7px" x="226" y="454.0">22</text><rect fill="none" height="156" rx="6" ry="6" stroke="#334155" stroke-width="2" width="696" x="20" y="324" /><text fill="#1e3a5f" font-family="ui-monospace, monospace" font-size="8px" font-weight="bold" x="560" y="273">Display · J1</text><rect fill="#eff6ff" height="22" rx="3" ry="3" stroke="#93c5fd" stroke-width="1" width="140" x="556" y="276" /><line stroke="#93c5fd" stroke-width="0.5" x1="582" x2="582" y1="276" y2="298" /><text fill="#64748b" font-family="ui-monospace, monospace" font-size="10px" text-anchor="middle" x="569.0" y="291.0">3</text><text fill="#1e293b" font-family="ui-monospace, monospace" font-size="9px" x="587" y="291.0">Data In</text><text fill="#1e3a5f" font-family="ui-monospace, monospace" font-size="8px" font-weight="bold" x="560" y="443">Load Device · J1</text><rect fill="#eff6ff" height="22" rx="3" ry="3" stroke="#93c5fd" stroke-width="1" width="140" x="556" y="446" /><line stroke="#93c5fd" stroke-width="0.5" x1="582" x2="582" y1="446" y2="468" /><text fill="#64748b" font-family="ui-monospace, monospace" font-size="10px" text-anchor="middle" x="569.0" y="461.0">3</text><text fill="#1e293b" font-family="ui-monospace, monospace" font-size="9px" x="587" y="461.0">Signal Out</text></svg>
